<svg xmlns="http://www.w3.org/2000/svg" viewBox="0 0 24 24"><path d="M12,5.5a1,1,0,1,0,1,1A1,1,0,0,0,12,5.5Zm-3,0a1,1,0,1,0,1,1A1,1,0,0,0,9,5.5Zm-3,0a1,1,0,1,0,1,1A1,1,0,0,0,6,5.5Zm0,0a1,1,0,1,0,1,1A1,1,0,0,0,6,5.5Zm3,0a1,1,0,1,0,1,1A1,1,0,0,0,9,5.5Zm3,0a1,1,0,1,0,1,1A1,1,0,0,0,12,5.5Zm0,0a1,1,0,1,0,1,1A1,1,0,0,0,12,5.5Zm-3,0a1,1,0,1,0,1,1A1,1,0,0,0,9,5.5Zm-3,0a1,1,0,1,0,1,1A1,1,0,0,0,6,5.5Zm14-3H4a2,2,0,0,0-2,2v15a2,2,0,0,0,2,2H20a2,2,0,0,0,2-2V4.5A2,2,0,0,0,20,2.5Zm0,17H4v-9H20Zm0-11H4v-4H20Zm-8-1a1,1,0,1,0-1-1A1,1,0,0,0,12,7.5Zm-3,0a1,1,0,1,0-1-1A1,1,0,0,0,9,7.5Zm-3,0a1,1,0,1,0-1-1A1,1,0,0,0,6,7.5Zm0-2a1,1,0,1,0,1,1A1,1,0,0,0,6,5.5Zm3,0a1,1,0,1,0,1,1A1,1,0,0,0,9,5.5Zm3,0a1,1,0,1,0,1,1A1,1,0,0,0,12,5.5Z" data-name="Layer 22"/></svg>